<svg xmlns="http://www.w3.org/2000/svg" width="33.182" height="33.181" viewBox="0 0 33.182 33.181"><defs><style>.a{fill:#fff;}</style></defs><g transform="translate(0)"><path class="a" d="M-2401.409-4120.819a16.482,16.482,0,0,1-11.732-4.86,16.479,16.479,0,0,1-4.86-11.731,16.479,16.479,0,0,1,4.86-11.731,16.482,16.482,0,0,1,11.732-4.859,16.481,16.481,0,0,1,11.731,4.859,16.481,16.481,0,0,1,4.859,11.731,16.481,16.481,0,0,1-4.859,11.731A16.481,16.481,0,0,1-2401.409-4120.819Zm-3.274-15.941v10.847h4.485v-10.847h2.96l.392-3.808h-3.352v-2.243a.916.916,0,0,1,.952-1.039h2.41v-3.7l-3.323-.013a4.243,4.243,0,0,0-3.645,1.6,5.032,5.032,0,0,0-.879,2.924v2.467h-2.134v3.811Z" transform="translate(2418 4154)"/></g></svg>