<svg xmlns="http://www.w3.org/2000/svg" xmlns:xlink="http://www.w3.org/1999/xlink" width="21.558" height="18.582" viewBox="0 0 21.558 18.582"><defs><style>.a{fill:none;}.b{clip-path:url(#a);}.c{fill:#fecc52;}</style><clipPath id="a"><rect class="a" width="21.558" height="18.582"/></clipPath></defs><g class="b"><g transform="translate(0 -3.162)"><path class="c" d="M18.708,9.5l-5.386-.509a.931.931,0,0,1-.772-.571L10.621,3.741a.923.923,0,0,0-1.713,0L6.994,8.417a.912.912,0,0,1-.772.571L.836,9.5a.931.931,0,0,0-.525,1.62L4.37,14.683a.923.923,0,0,1,.293.911l-1.219,5a.931.931,0,0,0,1.374,1.019l4.491-2.639a.934.934,0,0,1,.941,0l4.491,2.639a.928.928,0,0,0,1.373-1.019l-1.2-5a.923.923,0,0,1,.293-.911l4.059-3.565A.943.943,0,0,0,18.708,9.5Z" transform="translate(0)"/></g></g></svg>