<svg xmlns="http://www.w3.org/2000/svg" width="33.181" height="33.181" viewBox="0 0 33.181 33.181"><defs><style>.a{fill:#fff;}</style></defs><g transform="translate(0)"><path class="a" d="M-2539.228-4120.819a16.481,16.481,0,0,1-11.731-4.86,16.481,16.481,0,0,1-4.859-11.731,16.481,16.481,0,0,1,4.859-11.731,16.481,16.481,0,0,1,11.731-4.859,16.481,16.481,0,0,1,11.731,4.859,16.481,16.481,0,0,1,4.859,11.731,16.481,16.481,0,0,1-4.859,11.731A16.481,16.481,0,0,1-2539.228-4120.819Zm3.939-17.494c1.66,0,2.009,1.466,2.009,2.7v6.382h3.966v-6.841a5.8,5.8,0,0,0-1.3-4.057,4.293,4.293,0,0,0-3.261-1.31,3.92,3.92,0,0,0-3.575,1.97v-1.691h-3.966c.05,1.055.005,10.8,0,11.909v.018h3.966v-6.661a2.637,2.637,0,0,1,.131-.967A2.177,2.177,0,0,1-2535.289-4138.312Zm-12.288-2.85v11.929h3.964v-11.929Zm2.008-5.749a2.064,2.064,0,0,0-2.243,2.06,2.059,2.059,0,0,0,2.191,2.061h.026a2.065,2.065,0,0,0,2.244-2.061A2.058,2.058,0,0,0-2545.569-4146.911Z" transform="translate(2555.818 4154)"/></g></svg>