<svg xmlns="http://www.w3.org/2000/svg" width="21.976" height="22.403" viewBox="0 0 21.976 22.403"><defs><style>.a{fill:#737373;}</style></defs><path class="a" d="M21.836,21.26l-5.342-5.444a9.62,9.62,0,0,0,2.3-6.264A9.473,9.473,0,0,0,9.422,0,9.473,9.473,0,0,0,.05,9.552,9.477,9.477,0,0,0,9.422,19.1a9.234,9.234,0,0,0,6.146-2.345L20.91,22.2a.656.656,0,0,0,.463.2.636.636,0,0,0,.463-.2A.681.681,0,0,0,21.836,21.26ZM1.361,9.552A8.144,8.144,0,0,1,9.418,1.341a8.144,8.144,0,0,1,8.057,8.211,8.148,8.148,0,0,1-8.057,8.216A8.148,8.148,0,0,1,1.361,9.552Z" transform="translate(-0.05)"/></svg>