<svg xmlns="http://www.w3.org/2000/svg" width="32.886" height="32.885" viewBox="0 0 32.886 32.885"><defs><style>.a{fill:#fff;}</style></defs><path class="a" d="M16.443,0A16.443,16.443,0,1,0,32.886,16.443,16.445,16.445,0,0,0,16.443,0Zm7.508,12.82q.011.243.011.488A10.665,10.665,0,0,1,13.223,24.046h0a10.683,10.683,0,0,1-5.785-1.7,7.677,7.677,0,0,0,.9.052,7.573,7.573,0,0,0,4.688-1.616A3.778,3.778,0,0,1,9.5,18.166a3.762,3.762,0,0,0,1.7-.065,3.775,3.775,0,0,1-3.028-3.7c0-.017,0-.032,0-.048a3.748,3.748,0,0,0,1.709.472A3.777,3.777,0,0,1,8.718,9.787,10.715,10.715,0,0,0,16.5,13.731a3.776,3.776,0,0,1,6.431-3.442,7.57,7.57,0,0,0,2.4-.916,3.789,3.789,0,0,1-1.66,2.087,7.527,7.527,0,0,0,2.167-.594A7.67,7.67,0,0,1,23.951,12.82Zm0,0"/></svg>